<svg xmlns="http://www.w3.org/2000/svg" viewBox="0 0 520 220" width="520" height="220" role="img" aria-label="Language spectrum: Rust 21 percent, Shell 20 percent, JavaScript 17 percent, PHP 16 percent, TypeScript 8 percent, CSS 6 percent, Lua 4 percent, Python 2 percent, other 5 percent">
<rect x="1" y="1" width="518" height="218" rx="6" fill="#ffffff" stroke="#d0d7de" stroke-width="1"/>
<text x="20" y="30" font-family="ui-monospace, SFMono-Regular, Menlo, Consolas, Liberation Mono, monospace" font-size="11" fill="#0891b2" letter-spacing="3">LANGUAGE SPECTRUM</text>
<line x1="20" y1="42" x2="500" y2="42" stroke="#d0d7de" stroke-width="1"/>
<rect x="33.2" y="64.0" width="34.0" height="104.0" fill="#0891b2" fill-opacity="0.7"/>
<rect x="33.2" y="61.0" width="34.0" height="3" fill="#b45309"/>
<text x="50.2" y="56.0" font-family="ui-monospace, SFMono-Regular, Menlo, Consolas, Liberation Mono, monospace" font-size="9" fill="#59636e" text-anchor="middle">21.4%</text>
<text x="50.2" y="180" font-family="ui-monospace, SFMono-Regular, Menlo, Consolas, Liberation Mono, monospace" font-size="9" fill="#1f2328" text-anchor="end" transform="rotate(-40 50.2 180)">Rust</text><rect x="85.7" y="69.4" width="34.0" height="98.6" fill="#0891b2" fill-opacity="0.7"/>
<rect x="85.7" y="66.4" width="34.0" height="3" fill="#b45309"/>
<text x="102.7" y="61.4" font-family="ui-monospace, SFMono-Regular, Menlo, Consolas, Liberation Mono, monospace" font-size="9" fill="#59636e" text-anchor="middle">20.3%</text>
<text x="102.7" y="180" font-family="ui-monospace, SFMono-Regular, Menlo, Consolas, Liberation Mono, monospace" font-size="9" fill="#1f2328" text-anchor="end" transform="rotate(-40 102.7 180)">Shell</text><rect x="138.1" y="85.5" width="34.0" height="82.5" fill="#0891b2" fill-opacity="0.7"/>
<rect x="138.1" y="82.5" width="34.0" height="3" fill="#b45309"/>
<text x="155.1" y="77.5" font-family="ui-monospace, SFMono-Regular, Menlo, Consolas, Liberation Mono, monospace" font-size="9" fill="#59636e" text-anchor="middle">17.0%</text>
<text x="155.1" y="180" font-family="ui-monospace, SFMono-Regular, Menlo, Consolas, Liberation Mono, monospace" font-size="9" fill="#1f2328" text-anchor="end" transform="rotate(-40 155.1 180)">JavaScript</text><rect x="190.6" y="89.4" width="34.0" height="78.6" fill="#0891b2" fill-opacity="0.7"/>
<rect x="190.6" y="86.4" width="34.0" height="3" fill="#b45309"/>
<text x="207.6" y="81.4" font-family="ui-monospace, SFMono-Regular, Menlo, Consolas, Liberation Mono, monospace" font-size="9" fill="#59636e" text-anchor="middle">16.1%</text>
<text x="207.6" y="180" font-family="ui-monospace, SFMono-Regular, Menlo, Consolas, Liberation Mono, monospace" font-size="9" fill="#1f2328" text-anchor="end" transform="rotate(-40 207.6 180)">PHP</text><rect x="243.0" y="127.1" width="34.0" height="40.9" fill="#0891b2" fill-opacity="0.7"/>
<rect x="243.0" y="124.1" width="34.0" height="3" fill="#b45309"/>
<text x="260.0" y="119.1" font-family="ui-monospace, SFMono-Regular, Menlo, Consolas, Liberation Mono, monospace" font-size="9" fill="#59636e" text-anchor="middle">8.4%</text>
<text x="260.0" y="180" font-family="ui-monospace, SFMono-Regular, Menlo, Consolas, Liberation Mono, monospace" font-size="9" fill="#1f2328" text-anchor="end" transform="rotate(-40 260.0 180)">TypeScript</text><rect x="295.4" y="137.9" width="34.0" height="30.1" fill="#0891b2" fill-opacity="0.7"/>
<rect x="295.4" y="134.9" width="34.0" height="3" fill="#b45309"/>
<text x="312.4" y="129.9" font-family="ui-monospace, SFMono-Regular, Menlo, Consolas, Liberation Mono, monospace" font-size="9" fill="#59636e" text-anchor="middle">6.2%</text>
<text x="312.4" y="180" font-family="ui-monospace, SFMono-Regular, Menlo, Consolas, Liberation Mono, monospace" font-size="9" fill="#1f2328" text-anchor="end" transform="rotate(-40 312.4 180)">CSS</text><rect x="347.9" y="150.0" width="34.0" height="18.0" fill="#0891b2" fill-opacity="0.7"/>
<rect x="347.9" y="147.0" width="34.0" height="3" fill="#b45309"/>
<text x="364.9" y="142.0" font-family="ui-monospace, SFMono-Regular, Menlo, Consolas, Liberation Mono, monospace" font-size="9" fill="#59636e" text-anchor="middle">3.7%</text>
<text x="364.9" y="180" font-family="ui-monospace, SFMono-Regular, Menlo, Consolas, Liberation Mono, monospace" font-size="9" fill="#1f2328" text-anchor="end" transform="rotate(-40 364.9 180)">Lua</text><rect x="400.3" y="156.3" width="34.0" height="11.7" fill="#0891b2" fill-opacity="0.7"/>
<rect x="400.3" y="153.3" width="34.0" height="3" fill="#b45309"/>
<text x="417.3" y="148.3" font-family="ui-monospace, SFMono-Regular, Menlo, Consolas, Liberation Mono, monospace" font-size="9" fill="#59636e" text-anchor="middle">2.4%</text>
<text x="417.3" y="180" font-family="ui-monospace, SFMono-Regular, Menlo, Consolas, Liberation Mono, monospace" font-size="9" fill="#1f2328" text-anchor="end" transform="rotate(-40 417.3 180)">Python</text><rect x="452.8" y="145.6" width="34.0" height="22.4" fill="#0891b2" fill-opacity="0.7"/>
<rect x="452.8" y="142.6" width="34.0" height="3" fill="#b45309"/>
<text x="469.8" y="137.6" font-family="ui-monospace, SFMono-Regular, Menlo, Consolas, Liberation Mono, monospace" font-size="9" fill="#59636e" text-anchor="middle">4.6%</text>
<text x="469.8" y="180" font-family="ui-monospace, SFMono-Regular, Menlo, Consolas, Liberation Mono, monospace" font-size="9" fill="#1f2328" text-anchor="end" transform="rotate(-40 469.8 180)">other</text>
<line x1="24" y1="168" x2="496" y2="168" stroke="#d0d7de" stroke-width="1"/>
</svg>
